<?xml version="1.0" encoding="utf-8"?>
<!-- Generator: Adobe Illustrator 19.2.1, SVG Export Plug-In . SVG Version: 6.00 Build 0)  -->
<svg version="1.1" id="Layer_1" xmlns="http://www.w3.org/2000/svg" xmlns:xlink="http://www.w3.org/1999/xlink" x="0px" y="0px"
	 viewBox="0 0 184.2 159.4" style="enable-background:new 0 0 184.2 159.4;" xml:space="preserve">
<style type="text/css">
	.st0{fill:#922265;}
	.st1{fill:#B2212D;}
	.st2{fill:#EDD915;}
	.st3{fill:#363893;}
	.st4{fill:#DC2127;}
	.st5{fill:#E7962B;}
	.st6{fill:#E05A26;}
</style>
<polygon class="st0" points="-67.8,136.9 -36.8,47.3 1.4,57.9 "/>
<polygon class="st1" points="-36.8,47.3 20.6,-0.1 1.4,57.9 "/>
<polygon class="st2" points="20.6,-0.1 183.1,0.3 144.5,37.1 "/>
<polygon class="st3" points="63,13.4 1.4,57.9 20.6,-0.1 "/>
<polygon class="st4" points="56,11.5 -25.2,68.9 -67.8,136.9 -43.5,163 -15.4,163.5 23.2,144.2 46.7,134.2 69,109.6 93.2,80 
	106.7,66.4 123.1,48.1 131.7,35.3 "/>
<polygon class="st5" points="-39.5,167.5 -72,159.1 -67.8,136.9 "/>
<polygon class="st2" points="128.2,40.9 111.4,69.8 21,44.3 "/>
<polygon class="st5" points="-2.3,67 80.7,105.6 97.8,75.5 "/>
<polygon class="st5" points="67.4,114.6 55.5,137.3 -18.8,83.3 "/>
<polygon class="st5" points="20.1,153.5 -24.5,96.9 44.3,136.7 "/>
<polygon class="st5" points="-36.5,110.7 -10.3,167.3 11.2,151 "/>
<polygon class="st5" points="-19.8,162.7 -39.5,167.5 -49.4,129.9 "/>
<polygon class="st6" points="144.5,37.1 128.2,40.9 20.6,-0.1 "/>
<polygon class="st6" points="111.4,69.8 97.8,75.5 21,44.3 "/>
<polygon class="st6" points="80.7,105.6 67.4,114.6 -2.3,67 "/>
<polygon class="st6" points="55.5,137.3 44.3,136.7 -18.8,83.3 "/>
<polygon class="st6" points="20.1,153.5 11.2,151 -24.5,96.9 "/>
<polygon class="st6" points="-10.3,167.3 -19.8,162.7 -36.5,110.7 "/>
<polygon class="st6" points="-39.5,167.5 -67.8,136.9 -49.4,129.9 "/>
<polygon class="st0" points="-35.8,49.1 7,-35.5 43.4,-19.9 "/>
</svg>
