<?xml version="1.0" encoding="utf-8"?>
<!-- Generator: Adobe Illustrator 19.2.1, SVG Export Plug-In . SVG Version: 6.00 Build 0)  -->
<svg version="1.1" id="Layer_1" xmlns="http://www.w3.org/2000/svg" xmlns:xlink="http://www.w3.org/1999/xlink" x="0px" y="0px"
	 viewBox="0 0 498.2 243.8" style="enable-background:new 0 0 498.2 243.8;" xml:space="preserve">
<style type="text/css">
	.st0{fill:#97C83F;}
	.st1{fill:#DC2127;}
	.st2{fill:#922265;}
	.st3{fill:#363893;}
	.st4{fill:#4372B8;}
	.st5{fill:#3A9745;}
	.st6{fill:#B2212D;}
	.st7{fill:#EDD915;}
	.st8{fill:#E7962B;}
	.st9{fill:#E05A26;}
	.st10{fill:#662E91;}
	.st11{fill:#5EA6DA;}
	.st12{fill:#FFF200;}
	.st13{fill:#C6CB2E;}
	.st14{fill:#262262;}
	.st15{clip-path:url(#SVGID_2_);fill:#0B121D;}
</style>
<polygon class="st0" points="232.4,172.2 247.4,180 252.3,153.5 "/>
<polygon class="st1" points="197.7,167.4 186.4,231.9 164.5,160.6 "/>
<polygon class="st2" points="185.1,181.3 181.7,194.4 200,201.3 "/>
<polygon class="st3" points="193.7,212.2 199.9,201.1 181.7,194.4 "/>
<polygon class="st4" points="193.7,212.2 160.6,190.5 181.7,194.4 "/>
<polygon class="st0" points="193.7,212.2 163,216.1 160.6,190.5 "/>
<polygon class="st5" points="193.7,212.2 161.6,234 163,216.1 "/>
<polygon class="st2" points="163,216.1 158.2,141.1 126.8,141.1 "/>
<polygon class="st6" points="158.2,141.1 124.3,92.7 126.8,141.1 "/>
<polygon class="st7" points="124.3,92.7 0,58.9 21.8,95.2 "/>
<polygon class="st3" points="89,94.2 126.8,141.1 124.3,92.7 "/>
<polygon class="st1" points="94.8,94.2 144.8,155.1 163,216.1 139,230.9 117.4,225.5 91.9,202.6 76.1,190 64.2,166.4 51.9,138.7 
	44.5,125.5 35.8,108.1 31.9,96.4 "/>
<polygon class="st8" points="135,233.5 161.6,234 163,216.1 "/>
<polygon class="st7" points="33.4,101.4 40.2,127.1 114.7,126.6 "/>
<polygon class="st8" points="127.7,148.9 56.1,161 49.3,134.3 "/>
<polygon class="st8" points="64.3,170.6 68.7,190.5 136.9,164.8 "/>
<polygon class="st8" points="92.4,210.3 138.4,176.4 77.4,192.4 "/>
<polygon class="st8" points="144.7,189.5 112.7,227.2 99.7,210.3 "/>
<polygon class="st8" points="121,225.8 135,233.5 150.5,206.9 "/>
<polygon class="st9" points="21.8,95.2 33.4,101.4 124.3,92.7 "/>
<polygon class="st9" points="40.2,127.1 49.4,134.3 114.7,126.6 "/>
<polygon class="st9" points="56.1,161 64.3,170.6 127.7,148.9 "/>
<polygon class="st9" points="68.7,190.5 77.4,192.4 136.9,164.8 "/>
<polygon class="st9" points="92.4,210.3 99.7,210.3 138.4,176.4 "/>
<polygon class="st9" points="112.7,227.2 121,225.8 144.7,189.5 "/>
<polygon class="st9" points="135,233.5 163,216.1 150.5,206.9 "/>
<polygon class="st10" points="197.7,167.4 236.7,224.8 186.4,231.9 "/>
<polygon class="st4" points="186.4,231.9 214.5,243.8 236.7,224.8 "/>
<polygon class="st3" points="214.5,243.8 265.5,223.2 236.7,224.8 "/>
<polygon class="st11" points="265.5,223.2 197.7,167.4 236.7,224.8 "/>
<polygon class="st3" points="260.3,115.5 199,62.6 243.2,175.5 "/>
<polygon class="st3" points="265.5,223.2 209.3,159.7 197.7,167.4 "/>
<polygon class="st7" points="164.5,160.6 167.7,145.5 184.5,143.5 "/>
<polygon class="st12" points="167.7,145.5 184.5,143.5 252.9,85.5 "/>
<polygon class="st7" points="181.6,135.8 264.2,48.7 252.9,85.5 "/>
<polygon class="st13" points="252.9,85.5 278.7,30.6 266.4,20.6 "/>
<polygon class="st3" points="227.1,19 243.2,37.4 233.5,58.1 "/>
<polygon class="st11" points="227.1,19 233.5,58.1 213.8,55.8 "/>
<polygon class="st2" points="243.2,37.4 240.9,23.5 227.1,19 "/>
<polygon class="st13" points="219.6,56.5 219.8,73.4 230.3,57.7 "/>
<polygon class="st10" points="240.9,23.5 264.2,10.9 227.1,19 "/>
<polygon class="st2" points="227.1,19 253.2,0 264.2,10.9 "/>
<polygon class="st8" points="253.2,0 275.5,10.3 264.2,10.9 "/>
<polygon class="st3" points="264.2,10.9 266.4,20.6 278.7,30.6 "/>
<polygon class="st11" points="264.2,10.9 275.5,10.3 278.7,30.6 "/>
<polygon class="st11" points="209.3,159.7 232.4,172.2 265.5,223.2 "/>
<polygon class="st5" points="232.4,172.2 247.4,180 246,193.3 "/>
<polygon class="st1" points="247.4,180 259,170.6 260.3,115.5 "/>
<polygon class="st9" points="243.2,175.5 247.4,180 260.3,115.5 "/>
<polygon class="st14" points="235.6,156.2 250,132.6 231.3,144.8 "/>
<polygon class="st14" points="227.6,135.5 255.5,120 224.6,127.8 "/>
<polygon class="st14" points="243.2,110.3 232.9,114.8 238.8,106.4 "/>
<polygon class="st14" points="209,88.1 212.2,95.9 220.9,92 "/>
<polygon class="st13" points="197.7,167.4 252.9,85.5 164.5,160.6 "/>
<g>
	<defs>
		<rect id="SVGID_1_" x="-196.4" y="-130.8" width="841.9" height="529.5"/>
	</defs>
	<clipPath id="SVGID_2_">
		<use xlink:href="#SVGID_1_"  style="overflow:visible;"/>
	</clipPath>
	<path class="st15" d="M283.3,103.6l1.2-0.1c1.1-0.1,1.5-0.4,1.5-0.6V84.2c0-0.2-0.2-0.3-1.9-0.5l-0.8-0.1l-0.1-0.2h8.6
		c6.3,0,8.5,1.8,8.5,4.5c0,2.2-1.9,3.8-6,4.4v0.1c4.5,0.3,7.1,2.5,7.1,5.5c0,3.5-2.9,5.8-9.1,5.8h-9.2L283.3,103.6z M291,92.5
		c3,0,5-1.5,5-4.4c0-3-1.9-4.3-5-4.3l-0.8,0v8.6H291z M292.3,103.3c2.8-0.2,4.7-2.4,4.7-5.2c0-3.2-2.4-5.3-5.5-5.3
		c-0.6,0-1,0-1.3,0.1v10l1.7,0.6C291.9,103.4,292.5,103.3,292.3,103.3"/>
	<path class="st15" d="M310.9,95l-1.2,3.3c-1.5,4.5-1.7,4.9,1.4,5.2l0.7,0.1l0.1,0.2h-7.1l0.1-0.2l0.6-0.1c2.1-0.3,2.4-0.7,4.5-6.5
		l3.6-10.2l-0.4-1c1.4-0.4,2.1-1.4,2.8-2.9h0.6l5.6,16.4c1.2,3.5,1.8,4.1,3.2,4.2l0.9,0.1l0.1,0.2h-10.2l0.1-0.2l0.9-0.1
		c1.6-0.1,1.7-0.9,1-3l-1.8-5.5H310.9z M316.2,94.7l-2.4-7.4h0l-2.6,7.4H316.2z"/>
	<path class="st15" d="M333.6,86.4L333.6,86.4v16c0,0.6,0.6,1,2.9,1.2l0.6,0l0.1,0.2H330l0.1-0.2l0.6,0c1.8-0.1,2.4-0.8,2.4-1.5
		l0.1-16.1c-0.9-1.2-2-2.1-3.5-2.3l-0.4,0l-0.1-0.2h7.5l11.6,13.9h0l0-12.4c0-0.6-0.7-1.1-2.9-1.2l-0.6,0l-0.1-0.2h7.2l-0.1,0.2
		l-0.7,0c-1.8,0.1-2.4,0.8-2.4,1.5l-0.1,18.8h-0.3L333.6,86.4z"/>
	<path class="st15" d="M356.1,93.8c0-6,4.3-10.8,12-10.8c2.1,0,4.4,0.6,5.4,1.2l2-0.6l0.1,6.5h-0.2l-3.2-5.7c-0.8-0.7-2.5-1-4.3-1
		c-4.9,0-7.4,4.5-7.4,10.2c0,6.9,3.7,10.4,7.2,10.4c1.6,0,3-0.6,3.6-1v-7.2c0-0.2-0.6-0.4-2.2-0.5l-1.1-0.1l-0.1-0.2h10.2l-0.1,0.2
		l-1.4,0.1c-1.1,0.1-1.3,0.3-1.3,0.5v6.4l1.9-0.4l0,0.1c-2.6,1.3-6.8,2.4-9.8,2.4C360.5,104.3,356.1,99.7,356.1,93.8"/>
	<path class="st15" d="M386.7,95l-1.2,3.3c-1.5,4.5-1.7,4.9,1.4,5.2l0.6,0.1l0.1,0.2h-7.1l0.1-0.2l0.6-0.1c2.1-0.3,2.4-0.7,4.5-6.5
		l3.6-10.2l-0.4-1c1.4-0.4,2.1-1.4,2.8-2.9h0.6l5.6,16.4c1.2,3.5,1.8,4.1,3.2,4.2l0.9,0.1l0.1,0.2h-10.2l0.1-0.2l0.9-0.1
		c1.6-0.1,1.7-0.9,1-3l-1.8-5.5H386.7z M392,94.7l-2.4-7.4h0l-2.6,7.4H392z"/>
	<path class="st15" d="M405.9,103.6l1.3-0.1c1.1-0.1,1.5-0.4,1.5-0.6V84.2c0-0.2-0.1-0.3-1.8-0.5l-0.9-0.1l-0.1-0.2h10.4l-0.1,0.2
		l-1.8,0.1c-1,0.1-1.5,0.3-1.5,0.6v18.9l2.4,0.2c3.7,0,5.4-2.1,7.5-6.7l0.2-0.4h0.2l-1,7.4h-16.2L405.9,103.6z"/>
	<path class="st15" d="M427.9,93.6c0-5.6,5.1-10.6,11.3-10.6c6.3,0,11,4.3,11,10.6c0,5.6-5.1,10.5-11.3,10.5
		C432.5,104.2,427.9,99.9,427.9,93.6 M445.6,93.6c0-6.4-2.5-10.2-6.6-10.2c-4.3,0-6.5,3.4-6.5,10.2c0,6.5,2.5,10.2,6.7,10.2
		C443.4,103.8,445.6,100.5,445.6,93.6"/>
	<path class="st15" d="M454.5,103.6l1.4-0.1c0.9-0.1,1.5-0.4,1.5-0.6V84.2c0-0.2-0.2-0.3-1.9-0.5l-1.1-0.1l-0.1-0.2l9.7,0
		c5.6,0,8.4,1.7,8.4,5.2c0,2.4-2,4.4-5,4.9l4.2,6.7c1.6,2.5,2.2,3.2,3.9,3.3l0.4,0l0.1,0.2h-7.1l-0.3-0.5l-5.5-9.7
		c-0.6-0.1-1.2-0.3-1.8-0.5v9.9c0,0.2,0.6,0.4,1.8,0.5l1.2,0.1l0.1,0.2h-10.4L454.5,103.6z M468.2,88.5c0-2.9-1.9-4.7-5.3-4.6h-1.2
		v9c0.6,0.1,1.1,0.3,1.6,0.3C466.4,93,468.2,91.4,468.2,88.5"/>
	<path class="st15" d="M479.9,103.6l1.1-0.1c1.1-0.1,1.6-0.4,1.6-0.6V84.2c0-0.2-0.2-0.3-1.9-0.5l-0.8-0.1l-0.1-0.2h16.6l0.3,6.6
		h-0.2l-0.1-0.4c-1.2-4.3-3.2-6-7.1-5.9l-2.5,0v9.3h1.4c2.9-0.2,4.1-0.9,4.8-3l0.2-0.6l0.2,0l-0.8,7.8l-0.2,0l0-0.6
		c-0.2-2.4-1.1-3-4.4-3.2l-1.1-0.1v9.8l3.2,0.1c4.2-0.1,6.3-2.5,7.6-6.1l0.2-0.4h0.2l-0.9,6.8h-17.3L479.9,103.6z"/>
	<path class="st15" d="M284.1,142l-0.4-5.2h0.2l1.3,2.5c1.2,2.4,3,3.5,5.5,3.5c2.7,0,4.4-1.7,4.4-4.2c0-2.8-2.2-3.8-5-4.8
		c-3.1-1.1-5.6-2.4-5.6-5.8c0-3.3,2.7-6,6.7-6c1.8,0,3.5,0.5,4.5,0.8l1.3-0.5l0.1,5.7h-0.2l-2.7-4.8c-0.7-0.5-1.7-0.9-3.1-0.9
		c-2.1,0-3.7,1.4-3.7,3.3c0,2.4,2.2,3.3,4.8,4.3c3.3,1.2,5.9,2.7,5.9,6.4c0,3.4-3.1,6.7-7.5,6.7C288.2,143.1,285.8,142.7,284.1,142"
		/>
	<path class="st15" d="M302.5,132.7c0-6,4.5-10.8,12.1-10.8c2,0,4.2,0.6,5.2,1.2l2.1-0.7l0.2,6.5h-0.2l-3.3-5.8
		c-0.7-0.5-2.3-0.9-4.1-0.9c-4.8,0-7.5,4.5-7.5,10.2c0,6.3,3.3,10.2,7.3,10.2c3.6,0,5.6-1.8,7.2-4.9l1-1.9h0.2l-1.1,5.8l-1.1,0.2
		c-1.2,0.5-4.2,1.2-6.4,1.2C307.1,143.1,302.5,138.7,302.5,132.7"/>
	<path class="st15" d="M326.1,142.6l1.2-0.1c1.1-0.1,1.5-0.4,1.5-0.6v-18.7c0-0.2-0.2-0.3-1.9-0.5l-0.8-0.1l-0.1-0.2h9.8l-0.1,0.2
		l-1.2,0.1c-1.1,0.1-1.5,0.4-1.5,0.6v8.9h9.2v-9c0-0.2-0.2-0.3-1.9-0.5l-0.9-0.1l-0.1-0.2h9.8l-0.1,0.2l-1.2,0.1
		c-1.1,0.1-1.5,0.4-1.5,0.6V142c0,0.2,0.2,0.3,1.9,0.5l0.8,0.1l0.1,0.2h-9.8l0.1-0.2l1.2-0.1c1.1-0.1,1.5-0.4,1.5-0.6v-9.3H333v9.4
		c0,0.2,0.2,0.3,1.9,0.5l0.9,0.1l0.1,0.2H326L326.1,142.6z"/>
	<path class="st15" d="M352.3,132.6c0-5.6,5.1-10.6,11.3-10.6c6.3,0,11,4.3,11,10.6c0,5.6-5.1,10.5-11.3,10.5
		C356.9,143.1,352.3,138.9,352.3,132.6 M369.9,132.6c0-6.4-2.5-10.2-6.6-10.2c-4.3,0-6.5,3.4-6.5,10.2c0,6.5,2.5,10.2,6.7,10.2
		C367.7,142.8,369.9,139.4,369.9,132.6"/>
	<path class="st15" d="M377.9,132.6c0-5.6,5.1-10.6,11.3-10.6c6.3,0,11,4.3,11,10.6c0,5.6-5.1,10.5-11.3,10.5
		C382.5,143.1,377.9,138.9,377.9,132.6 M395.6,132.6c0-6.4-2.5-10.2-6.6-10.2c-4.3,0-6.5,3.4-6.5,10.2c0,6.5,2.5,10.2,6.7,10.2
		C393.4,142.8,395.6,139.4,395.6,132.6"/>
	<path class="st15" d="M403.3,142.6l1.3-0.1c1.1-0.1,1.5-0.4,1.5-0.6v-18.7c0-0.2-0.1-0.3-1.8-0.5l-0.9-0.1l-0.1-0.2h10.4l-0.1,0.2
		l-1.8,0.1c-1,0.1-1.5,0.3-1.5,0.6v18.9l2.4,0.2c3.7,0,5.4-2.1,7.5-6.7l0.2-0.4h0.2l-1,7.4h-16.2L403.3,142.6z"/>
	<path class="st15" d="M431.1,142.6l1.3-0.1c1.1-0.1,1.5-0.4,1.5-0.6v-18.7c0-0.2-0.1-0.3-1.8-0.5l-0.9-0.1l-0.1-0.2h16.7l0.3,6.2
		h-0.2l-0.2-0.4c-1.5-4-3.1-5.6-7-5.6l-2.7,0.1v9.5l1.4-0.1c2.9-0.1,4.1-0.8,4.8-2.9l0.2-0.6l0.2,0l-0.8,7.8l-0.2,0l0-0.6
		c-0.2-2.4-1.1-3.2-4.4-3.2l-1.1,0v9.3c0,0.2,0.2,0.4,1.8,0.5l1.4,0.1l0.1,0.2H431L431.1,142.6z"/>
	<path class="st15" d="M451.6,132.6c0-5.6,5.1-10.6,11.3-10.6c6.3,0,11,4.3,11,10.6c0,5.6-5.1,10.5-11.3,10.5
		C456.3,143.1,451.6,138.9,451.6,132.6 M469.3,132.6c0-6.4-2.5-10.2-6.6-10.2c-4.3,0-6.5,3.4-6.5,10.2c0,6.5,2.5,10.2,6.7,10.2
		C467.1,142.8,469.3,139.4,469.3,132.6"/>
	<path class="st15" d="M476.8,142.6l1.4-0.1c0.9-0.1,1.5-0.4,1.5-0.6v-18.7c0-0.2-0.2-0.3-1.9-0.5l-1.1-0.1l-0.1-0.2l9.7,0
		c5.6,0,8.4,1.7,8.4,5.2c0,2.4-2,4.4-5,4.9l4.2,6.7c1.6,2.5,2.2,3.2,3.9,3.3l0.4,0l0.1,0.2h-7.1l-0.3-0.5l-5.5-9.7
		c-0.6-0.1-1.2-0.3-1.8-0.5v9.9c0,0.2,0.6,0.4,1.8,0.5l1.2,0.1l0.1,0.2h-10.4L476.8,142.6z M490.5,127.4c0-2.9-1.9-4.7-5.3-4.6H484
		v9c0.6,0.1,1.1,0.3,1.6,0.3C488.7,132,490.5,130.4,490.5,127.4"/>
	<path class="st15" d="M283,181.5l1.4-0.1c1.1-0.1,1.5-0.4,1.5-0.6v-18.7c0-0.2-0.2-0.3-1.9-0.5l-1.1-0.1l-0.1-0.2h9.4
		c5.8,0,8.6,1.6,8.6,4.9c0,3.4-3.4,5.6-8.8,5.6c-0.7,0-1.4-0.1-1.9-0.2v9.2c0,0.2,0.2,0.4,1.8,0.5l1.4,0.1l0.1,0.2h-10.6L283,181.5z
		 M296.5,166.8c0-3.3-1.4-5-4.7-5l-1.6,0.1v9.5c0.5,0.1,0.9,0.3,1.8,0.3C294.6,171.6,296.5,169.7,296.5,166.8"/>
	<path class="st15" d="M303,181.5l1.1-0.1c1.1-0.1,1.6-0.4,1.6-0.6v-18.7c0-0.2-0.2-0.3-1.9-0.5l-0.8-0.1l-0.1-0.2h16.6l0.3,6.6
		h-0.2l-0.1-0.4c-1.2-4.3-3.2-6-7.1-5.9l-2.5,0v9.3h1.4c2.9-0.2,4.1-0.9,4.8-3l0.2-0.6l0.2,0l-0.8,7.8l-0.2,0l0-0.6
		c-0.2-2.4-1.1-3-4.4-3.2l-1.1-0.1v9.8l3.2,0.1c4.2-0.1,6.3-2.5,7.6-6.1l0.2-0.4h0.2l-0.9,6.8h-17.3L303,181.5z"/>
	<path class="st15" d="M323.2,181.5l1.4-0.1c0.9-0.1,1.5-0.4,1.5-0.6v-18.7c0-0.2-0.2-0.3-1.9-0.5l-1.1-0.1l-0.1-0.2l9.7,0
		c5.6,0,8.4,1.7,8.4,5.2c0,2.4-2,4.4-5,4.9l4.2,6.7c1.6,2.5,2.2,3.2,3.9,3.3l0.4,0l0.1,0.2h-7.1l-0.3-0.5l-5.5-9.7
		c-0.6-0.1-1.2-0.3-1.8-0.5v9.9c0,0.2,0.6,0.4,1.8,0.5l1.2,0.1l0.1,0.2h-10.4L323.2,181.5z M336.9,166.4c0-2.9-1.9-4.7-5.3-4.6h-1.2
		v9c0.6,0.1,1.1,0.3,1.6,0.3C335.1,171,336.9,169.4,336.9,166.4"/>
	<path class="st15" d="M346.2,181.5l1.3-0.1c1.1-0.1,1.5-0.4,1.5-0.6v-18.7c0-0.2-0.1-0.3-1.8-0.5l-0.9-0.1l-0.1-0.2h16.7l0.3,6.2
		H363l-0.2-0.4c-1.5-4-3.1-5.6-7-5.6l-2.7,0.1v9.5l1.4-0.1c2.9-0.1,4.1-0.8,4.8-2.9l0.2-0.6l0.2,0l-0.8,7.8l-0.2,0l0-0.6
		c-0.2-2.4-1.1-3.2-4.4-3.2l-1.1,0v9.3c0,0.2,0.2,0.4,1.8,0.5l1.4,0.1l0.1,0.2h-10.3L346.2,181.5z"/>
	<path class="st15" d="M365.8,171.6c0-5.6,5.1-10.6,11.3-10.6c6.3,0,11,4.3,11,10.6c0,5.6-5.1,10.5-11.3,10.5
		C370.4,182.1,365.8,177.9,365.8,171.6 M383.5,171.6c0-6.4-2.5-10.2-6.6-10.2c-4.3,0-6.5,3.4-6.5,10.2c0,6.5,2.5,10.2,6.7,10.2
		C381.3,181.8,383.5,178.4,383.5,171.6"/>
	<path class="st15" d="M390,181.5l1.4-0.1c0.9-0.1,1.5-0.4,1.5-0.6v-18.7c0-0.2-0.2-0.3-1.9-0.5l-1.1-0.1l-0.1-0.2l9.7,0
		c5.6,0,8.4,1.7,8.4,5.2c0,2.4-2,4.4-5,4.9l4.2,6.7c1.6,2.5,2.2,3.2,3.9,3.3l0.4,0l0.1,0.2h-7.1l-0.3-0.5l-5.5-9.7
		c-0.6-0.1-1.2-0.3-1.8-0.5v9.9c0,0.2,0.6,0.4,1.8,0.5l1.2,0.1l0.1,0.2h-10.4L390,181.5z M403.7,166.4c0-2.9-1.9-4.7-5.3-4.6h-1.2v9
		c0.6,0.1,1.1,0.3,1.6,0.3C401.9,171,403.7,169.4,403.7,166.4"/>
	<path class="st15" d="M412.9,181.5l0.6,0c2.2-0.1,2.5-0.8,2.5-1.5l0.4-17.4c-0.6-0.6-1.3-0.8-2.2-0.9l-0.9-0.1l-0.1-0.2h7.3
		l5.5,14.8h0l5.7-14.8h7.4l-0.1,0.2l-1.6,0.1c-1.1,0.1-1.5,0.4-1.5,0.6l0.4,18.7c0,0.2,0.2,0.3,1.8,0.5l0.9,0.1l0.1,0.2H429l0.1-0.2
		l1.6-0.1c1.1-0.1,1.3-0.4,1.3-0.6l-0.4-18h0l-7.2,18.9H424l-6.9-18c-0.1-0.2-0.3-0.5-0.3-0.6l-0.3,17.1c0,0.6,0.6,1.1,3.1,1.3
		l0.6,0l0.1,0.2h-7.5L412.9,181.5z"/>
	<path class="st15" d="M441.3,181.5l1.3-0.1c1.1-0.1,1.5-0.4,1.5-0.6v-18.7c0-0.2-0.2-0.3-1.9-0.5l-0.9-0.1l-0.1-0.2h10l-0.1,0.2
		l-1.3,0.1c-1.1,0.1-1.5,0.4-1.5,0.6V181c0,0.2,0.2,0.3,1.9,0.5l0.9,0.1l0.1,0.2h-9.9L441.3,181.5z"/>
	<path class="st15" d="M456.9,164.4L456.9,164.4v16c0,0.6,0.7,1,2.9,1.2l0.6,0l0.1,0.2h-7.2l0.1-0.2l0.6,0c1.8-0.1,2.4-0.8,2.4-1.5
		l0.1-16.1c-0.9-1.2-2-2.1-3.5-2.3l-0.4,0l-0.1-0.2h7.5l11.6,13.9h0l0-12.4c0-0.6-0.7-1.1-2.9-1.2l-0.6,0l-0.1-0.2h7.2l-0.1,0.2
		l-0.7,0c-1.8,0.1-2.4,0.8-2.4,1.5l-0.1,18.8h-0.3L456.9,164.4z"/>
	<path class="st15" d="M477,171.7c0-6,4.3-10.8,12-10.8c2.1,0,4.4,0.6,5.4,1.2l2-0.6l0.1,6.5h-0.2l-3.2-5.7c-0.8-0.7-2.5-1-4.3-1
		c-4.9,0-7.4,4.5-7.4,10.2c0,6.9,3.7,10.4,7.2,10.4c1.6,0,3-0.6,3.6-1v-7.2c0-0.2-0.6-0.4-2.2-0.5l-1.1-0.1l-0.1-0.2h10.2l-0.1,0.2
		l-1.4,0.1c-1.1,0.1-1.3,0.3-1.3,0.5v6.4l1.9-0.4l0,0.1c-2.6,1.3-6.8,2.4-9.8,2.4C481.4,182.3,477,177.7,477,171.7"/>
	<path class="st15" d="M288.5,212l-1.2,3.3c-1.5,4.5-1.7,4.9,1.4,5.2l0.6,0.1l0.1,0.2h-7.1l0.1-0.2l0.6-0.1c2.1-0.3,2.4-0.7,4.5-6.5
		l3.6-10.2l-0.4-1c1.4-0.4,2.1-1.4,2.8-2.9h0.6l5.6,16.4c1.2,3.5,1.8,4.1,3.2,4.2l0.9,0.1l0.1,0.2h-10.2l0.1-0.2l0.9-0.1
		c1.6-0.1,1.7-0.9,1-3l-1.8-5.5H288.5z M293.7,211.7l-2.4-7.4h0l-2.6,7.4H293.7z"/>
	<path class="st15" d="M306.9,220.5l1.4-0.1c0.9-0.1,1.5-0.4,1.5-0.6v-18.7c0-0.2-0.2-0.3-1.9-0.5l-1.1-0.1l-0.1-0.2l9.7,0
		c5.6,0,8.4,1.7,8.4,5.2c0,2.4-2,4.4-5,4.9l4.2,6.7c1.6,2.5,2.2,3.2,3.9,3.3l0.4,0l0.1,0.2h-7.1l-0.3-0.5l-5.5-9.7
		c-0.6-0.1-1.2-0.3-1.8-0.5v9.9c0,0.2,0.6,0.4,1.8,0.5l1.2,0.1l0.1,0.2h-10.4L306.9,220.5z M320.6,205.4c0-2.9-1.9-4.7-5.3-4.6h-1.2
		v9c0.6,0.1,1.1,0.3,1.6,0.3C318.8,210,320.6,208.4,320.6,205.4"/>
	<path class="st15" d="M335.9,220.5l1.5-0.1c1.1-0.1,1.5-0.4,1.5-0.6v-19.1h-1.1c-3.2,0.2-5.3,3.3-6.3,5.3l-0.2,0.4H331l0.9-6h18.2
		l0.6,6h-0.2l-0.2-0.4c-1.1-2.4-3.3-5.2-6.2-5.3H343v19.2c0,0.2,0.2,0.3,1.9,0.5l1.1,0.1l0.1,0.2h-10.3L335.9,220.5z"/>
	<path class="st15" d="M355.3,220l-0.4-5.2h0.2l1.3,2.5c1.2,2.4,3,3.5,5.5,3.5c2.7,0,4.4-1.7,4.4-4.2c0-2.8-2.2-3.8-5-4.8
		c-3.1-1.1-5.6-2.4-5.6-5.8c0-3.3,2.7-6,6.7-6c1.8,0,3.5,0.5,4.5,0.8l1.3-0.5l0.1,5.7h-0.2l-2.7-4.8c-0.7-0.5-1.7-0.9-3.1-0.9
		c-2.1,0-3.7,1.4-3.7,3.3c0,2.4,2.2,3.3,4.8,4.3c3.3,1.2,5.9,2.7,5.9,6.4c0,3.4-3.1,6.7-7.5,6.7C359.3,221.1,357,220.7,355.3,220"/>
	<rect x="282.5" y="63.7" class="st15" width="216.6" height="1.1"/>
	<rect x="282.5" y="239.7" class="st15" width="216.6" height="1.1"/>
</g>
</svg>
